<svg version="1.1" id="Layer_1" xmlns="http://www.w3.org/2000/svg" xmlns:xlink="http://www.w3.org/1999/xlink" x="0px" y="0px"
	 width="100%" viewBox="0 0 500 500" enable-background="new 0 0 500 500" xml:space="preserve">
<path fill="#000000" opacity="1.000000" stroke="none" 
	d="
M289.000000,501.000000 
	C192.666687,501.000000 96.833382,501.000000 1.000051,501.000000 
	C1.000034,334.333405 1.000034,167.666794 1.000017,1.000141 
	C167.666565,1.000094 334.333130,1.000094 500.999756,1.000047 
	C500.999847,167.666519 500.999847,334.333038 500.999939,500.999786 
	C430.500000,501.000000 360.000000,501.000000 289.000000,501.000000 
M409.429871,97.052170 
	C407.975555,96.877090 406.430908,96.959610 405.081177,96.486328 
	C393.939209,92.579521 382.854980,88.507973 371.709778,84.610733 
	C362.908905,81.533257 354.113831,78.408318 345.191742,75.717163 
	C336.850311,73.201149 328.439850,70.712700 319.889038,69.140923 
	C308.021393,66.959473 296.010284,65.519058 284.030029,64.002808 
	C275.430420,62.914406 266.767548,61.393581 258.156403,61.531738 
	C242.489990,61.783096 226.810654,62.776436 211.196121,64.140152 
	C201.688324,64.970528 192.170181,66.556175 182.877045,68.740250 
	C172.228943,71.242760 161.739975,74.524216 151.333298,77.929970 
	C132.509384,84.090393 113.851257,90.760727 94.992294,96.807671 
	C91.421303,97.952660 90.952103,99.572578 90.976303,102.689583 
	C91.090164,117.353531 90.947662,132.019318 91.031601,146.683670 
	C91.324020,197.772202 91.326553,248.866943 92.292992,299.943176 
	C92.484795,310.079742 95.516792,320.470703 98.887375,330.171631 
	C104.963417,347.659119 116.255409,362.161621 129.013840,375.268860 
	C137.935318,384.434265 148.538864,391.616638 160.267303,397.094299 
	C174.161911,403.583649 187.836502,410.542725 201.638718,417.231659 
	C217.168839,424.757874 232.702148,432.280090 248.336624,439.584595 
	C249.885025,440.308014 252.423050,440.083191 254.035080,439.316803 
	C267.888123,432.730957 281.632172,425.916016 295.411713,419.175537 
	C311.098145,411.502350 326.630829,403.490295 342.523468,396.270782 
	C356.172028,390.070648 366.459137,379.719330 376.651489,369.470581 
	C383.704803,362.378296 389.679535,353.938507 394.883179,345.342285 
	C403.971313,330.329163 409.666656,313.995728 410.744812,295.685364 
	C410.828247,295.029663 410.984589,294.373932 410.984741,293.718231 
	C410.997986,229.705505 411.006104,165.692780 410.955780,101.680099 
	C410.954742,100.329124 410.271667,98.978691 409.429871,97.052170 
z"/>
<path fill="#F8BB19" opacity="1.000000" stroke="none" 
	d="
M409.983734,296.153564 
	C409.666656,313.995728 403.971313,330.329163 394.883179,345.342285 
	C389.679535,353.938507 383.704803,362.378296 376.651489,369.470581 
	C366.459137,379.719330 356.172028,390.070648 342.523468,396.270782 
	C326.630829,403.490295 311.098145,411.502350 295.411713,419.175537 
	C281.632172,425.916016 267.888123,432.730957 254.035080,439.316803 
	C252.423050,440.083191 249.885025,440.308014 248.336624,439.584595 
	C232.702148,432.280090 217.168839,424.757874 201.638718,417.231659 
	C187.836502,410.542725 174.161911,403.583649 160.267303,397.094299 
	C148.538864,391.616638 137.935318,384.434265 129.013840,375.268860 
	C116.255409,362.161621 104.963417,347.659119 98.887375,330.171631 
	C95.516792,320.470703 92.484795,310.079742 92.292992,299.943176 
	C91.326553,248.866943 91.324020,197.772202 91.031601,146.683670 
	C90.947662,132.019318 91.090164,117.353531 90.976303,102.689583 
	C90.952103,99.572578 91.421303,97.952660 94.992294,96.807671 
	C113.851257,90.760727 132.509384,84.090393 151.333298,77.929970 
	C161.739975,74.524216 172.228943,71.242760 182.877045,68.740250 
	C192.170181,66.556175 201.688324,64.970528 211.196121,64.140152 
	C226.810654,62.776436 242.489990,61.783096 258.156403,61.531738 
	C266.767548,61.393581 275.430420,62.914406 284.030029,64.002808 
	C296.010284,65.519058 308.021393,66.959473 319.889038,69.140923 
	C328.439850,70.712700 336.850311,73.201149 345.191742,75.717163 
	C354.113831,78.408318 362.908905,81.533257 371.709778,84.610733 
	C382.854980,88.507973 393.939209,92.579521 405.081177,96.486328 
	C406.430908,96.959610 407.975555,96.877090 409.654053,97.841782 
	C409.913422,164.472107 409.948578,230.312836 409.983734,296.153564 
M125.124130,351.327454 
	C135.946335,365.876007 149.239151,377.616028 165.559799,385.557037 
	C192.955536,398.886841 220.489700,411.934357 248.075546,424.866180 
	C249.917816,425.729828 252.979706,425.255707 254.975357,424.329102 
	C271.584503,416.617401 288.167175,408.836365 304.575745,400.708740 
	C318.435303,393.843689 332.880768,387.715393 345.616913,379.113983 
	C380.376617,355.638794 398.960724,322.767334 398.954346,280.204041 
	C398.946228,226.214630 398.949493,172.225220 398.948181,118.235809 
	C398.947968,109.128990 398.985565,109.022011 390.185120,105.998787 
	C362.182129,96.378891 334.574707,85.547569 305.201599,80.328964 
	C266.679810,73.484947 228.342651,73.866684 190.008911,81.589272 
	C161.143402,87.404419 133.982758,98.573441 106.200867,107.807953 
	C103.004593,108.870369 102.850815,110.805588 102.852882,113.477158 
	C102.896713,170.132690 102.868439,226.788254 102.906227,283.443787 
	C102.922737,308.208771 110.333389,330.612457 125.124130,351.327454 
z"/>
<path fill="#FFDD80" opacity="1.000000" stroke="none" 
	d="
M410.364258,295.919464 
	C409.948578,230.312836 409.913422,164.472107 409.892517,98.129700 
	C410.271667,98.978691 410.954742,100.329124 410.955780,101.680099 
	C411.006104,165.692780 410.997986,229.705505 410.984741,293.718231 
	C410.984589,294.373932 410.828247,295.029663 410.364258,295.919464 
z"/>
<path fill="#171F4B" opacity="1.000000" stroke="none" 
	d="
M124.924744,351.030884 
	C110.333389,330.612457 102.922737,308.208771 102.906227,283.443787 
	C102.868439,226.788254 102.896713,170.132690 102.852882,113.477158 
	C102.850815,110.805588 103.004593,108.870369 106.200867,107.807953 
	C133.982758,98.573441 161.143402,87.404419 190.008911,81.589272 
	C228.342651,73.866684 266.679810,73.484947 305.201599,80.328964 
	C334.574707,85.547569 362.182129,96.378891 390.185120,105.998787 
	C398.985565,109.022011 398.947968,109.128990 398.948181,118.235809 
	C398.949493,172.225220 398.946228,226.214630 398.954346,280.204041 
	C398.960724,322.767334 380.376617,355.638794 345.616913,379.113983 
	C332.880768,387.715393 318.435303,393.843689 304.575745,400.708740 
	C288.167175,408.836365 271.584503,416.617401 254.975357,424.329102 
	C252.979706,425.255707 249.917816,425.729828 248.075546,424.866180 
	C220.489700,411.934357 192.955536,398.886841 165.559799,385.557037 
	C149.239151,377.616028 135.946335,365.876007 124.924744,351.030884 
M275.079163,111.154381 
	C275.079163,111.154381 275.276367,111.169266 275.276367,111.169266 
	C275.276367,111.169266 275.000000,110.999832 274.774689,110.717888 
	C274.557434,110.657959 274.340210,110.598030 274.122955,110.538101 
	C274.415314,110.692169 274.707642,110.846237 275.079163,111.154381 
M275.569000,128.486099 
	C275.051605,129.028809 274.534210,129.571503 273.582092,130.594009 
	C272.384460,131.047012 271.186859,131.500031 269.637329,131.400253 
	C267.465240,129.627029 265.160645,127.389458 264.340271,133.115250 
	C259.221039,133.367477 254.101791,133.619690 248.810287,133.304764 
	C247.879883,133.490189 246.949478,133.675613 245.347015,133.860550 
	C243.557465,133.852371 241.767929,133.844208 239.810623,133.155457 
	C237.013199,130.096359 233.753021,129.254272 229.240921,130.941544 
	C227.161545,129.940155 225.082184,128.938751 223.004410,127.105919 
	C222.491989,124.897255 224.463577,121.573349 220.167297,120.497719 
	C220.140793,120.323204 220.114304,120.148689 220.678406,119.703537 
	C223.874176,119.014153 225.189926,117.232788 223.985031,113.831207 
	C221.974716,115.269508 220.025208,116.664307 218.048752,118.096138 
	C218.048752,118.096138 218.004593,118.083961 217.602814,118.096230 
	C217.450775,118.435616 217.298721,118.775002 216.788254,119.694717 
	C211.884628,128.185715 212.354141,130.390137 220.520660,135.796448 
	C226.467468,139.733276 233.151688,141.155411 240.178543,142.159515 
	C255.668015,144.372849 270.375763,142.782043 283.714294,134.301270 
	C286.049286,132.816650 288.075806,128.925888 288.048798,126.167847 
	C288.019684,123.190918 286.622162,119.162582 282.000610,118.999710 
	C282.000610,118.999710 282.002716,119.003113 282.047150,118.449554 
	C281.730286,118.026917 281.413391,117.604279 280.924927,116.539383 
	C280.051086,115.974480 279.177216,115.409576 278.303375,114.844673 
	C277.895447,115.839363 277.102539,116.852699 277.149658,117.825356 
	C277.310364,121.144356 279.828186,121.007034 282.587708,121.462814 
	C283.510040,125.947815 279.351471,126.920319 276.872223,128.782593 
	C276.596649,128.511520 276.321106,128.240448 276.001495,127.387115 
	C275.722260,126.800270 275.443054,126.213425 275.163818,125.626579 
	C274.925049,125.770348 274.686249,125.914116 274.447479,126.057884 
	C274.936279,126.721062 275.425110,127.384239 275.569000,128.486099 
M311.535461,369.033478 
	C311.331207,368.689362 311.126984,368.345276 311.015503,367.975891 
	C311.015503,367.975891 311.042664,368.068115 310.562988,367.376129 
	C307.503387,367.154205 304.443787,366.932251 301.023041,366.684113 
	C301.023041,364.959473 301.023041,363.514038 301.548920,361.496918 
	C304.046051,361.202728 306.543182,360.908539 309.040314,360.614319 
	C307.534210,359.969666 305.956146,360.350281 304.713440,359.867584 
	C303.343597,359.335480 302.281647,358.010712 301.085571,357.031250 
	C302.081085,356.026276 302.906525,354.619873 304.111542,354.109375 
	C305.972900,353.320770 308.093842,353.144928 310.104706,352.709229 
	C310.086151,352.251190 310.067596,351.793152 310.049042,351.335114 
	C307.537415,351.197968 305.021149,351.117310 302.515320,350.909973 
	C299.081451,350.625824 297.750458,352.080017 297.929504,355.550476 
	C298.160248,360.022980 298.009155,364.515198 298.502594,369.693268 
	C302.679718,369.437531 306.856842,369.181793 311.009888,369.015961 
	C311.009888,369.015961 310.919678,368.993195 311.535461,369.033478 
M211.930313,188.725983 
	C211.080780,189.579041 210.231247,190.432098 208.825867,191.790405 
	C204.320663,200.647171 208.844742,208.490814 218.675018,208.783615 
	C222.170761,208.887741 225.707748,208.501297 229.161255,208.899490 
	C233.403412,209.388641 235.792725,207.863327 237.757050,204.061371 
	C241.133133,197.526932 246.366898,192.654297 253.324310,189.943893 
	C254.977188,189.300003 256.859375,189.244705 259.968628,188.674103 
	C247.869217,203.938004 247.027054,220.253647 248.958176,237.129883 
	C249.518631,242.027588 251.054749,242.925522 255.551697,240.695175 
	C259.801483,238.587402 261.897369,234.984573 261.884796,230.189285 
	C261.866608,223.250031 261.880157,216.310715 261.880157,208.813080 
	C269.176270,208.813080 275.800232,208.877457 282.422424,208.796066 
	C289.948853,208.703568 294.689484,204.504211 294.809692,197.990112 
	C294.931946,191.365402 289.979584,186.924988 282.287872,186.867630 
	C275.344208,186.815857 268.399811,186.856705 261.880310,186.856705 
	C261.880310,179.809814 261.935364,173.161667 261.864624,166.514847 
	C261.796265,160.092758 258.749359,155.581268 253.708328,154.182465 
	C248.458115,152.725616 243.703613,155.215958 239.685577,161.672546 
	C239.424805,167.612732 239.129440,173.551666 238.917435,179.493591 
	C238.807343,182.579453 238.578796,185.529190 234.358398,186.840012 
	C233.901825,186.804489 233.445236,186.768967 232.292099,186.301758 
	C227.189468,186.228088 222.079895,185.981003 216.988327,186.184280 
	C215.419037,186.246918 213.898788,187.538391 211.930313,188.725983 
M226.921616,107.842896 
	C226.921616,107.842896 226.721207,107.828720 226.721207,107.828720 
	C226.721207,107.828720 226.997375,108.001923 226.999115,108.831818 
	C227.001511,109.995995 226.795288,111.211281 227.064499,112.310089 
	C227.338257,113.427475 228.080505,114.430084 228.617615,115.482948 
	C229.682709,114.922119 230.763733,114.389069 231.807205,113.790527 
	C232.484711,113.401886 233.107437,112.917702 233.912109,112.368980 
	C231.542297,110.869759 229.272125,109.433556 226.921616,107.842896 
M260.122711,297.036774 
	C260.105408,295.254974 260.088104,293.473175 260.070801,291.691376 
	C258.164154,292.091980 256.257538,292.492584 253.504013,292.920105 
	C250.810898,292.754700 249.028610,293.459900 247.687943,296.307892 
	C246.033447,299.822479 243.376251,302.865051 240.949951,306.407043 
	C232.738968,292.929504 232.738968,292.929504 228.807465,294.405579 
	C235.685242,304.891968 241.831589,315.638092 238.537491,328.754608 
	C243.057068,329.705597 244.089157,328.033325 244.066696,324.671326 
	C244.018616,317.471741 242.964066,310.111603 247.915100,303.709717 
	C250.012283,300.997986 251.389572,297.729492 253.851562,294.705200 
	C255.029678,295.898468 256.207794,297.091766 256.820557,298.749695 
	C256.575409,301.211639 256.330292,303.673615 256.029724,307.054352 
	C256.029724,314.521057 256.029724,321.987762 256.029724,329.713318 
	C260.804077,328.283691 259.913177,331.387299 260.308411,305.209747 
	C260.045044,302.713501 259.781677,300.217255 260.122711,297.036774 
M252.704865,366.944794 
	C254.908646,364.509186 254.321732,361.653442 251.185776,360.310974 
	C249.528824,359.601685 247.632767,359.437775 246.000900,358.687683 
	C244.881485,358.173187 244.031082,357.073395 243.060440,356.235229 
	C244.190231,355.155945 245.155884,353.534943 246.490219,353.130646 
	C248.270172,352.591278 250.336609,352.997345 252.781876,352.997345 
	C247.797104,350.506897 242.174103,351.487579 241.292404,354.894684 
	C239.925430,360.177032 244.575363,360.452148 247.653946,361.958130 
	C247.796082,362.027649 248.055923,361.953003 248.131348,362.048157 
	C249.428009,363.684540 250.704239,365.337097 251.219894,367.124878 
	C248.089508,367.124878 244.959122,367.124878 241.807632,367.124878 
	C244.623917,371.276276 249.445679,371.219879 252.704865,366.944794 
M225.717148,360.940826 
	C226.249741,360.564880 227.258392,360.158142 227.236404,359.818054 
	C227.109299,357.852753 227.293228,354.575867 226.352829,354.183136 
	C222.707642,352.660797 218.697968,351.930756 214.759460,351.325653 
	C214.397003,351.269958 213.211594,354.158173 213.049286,355.744965 
	C212.764465,358.529602 212.874420,361.370331 213.020096,364.177094 
	C213.100052,365.718140 213.590576,367.237854 213.895981,368.767181 
	C214.279602,368.941010 214.663239,369.114807 215.046860,369.288605 
	C215.963074,363.237610 219.069733,363.081482 223.271088,365.909851 
	C223.941589,364.020660 224.482117,362.497711 224.997147,360.994354 
	C224.997147,360.994354 224.980011,361.021210 225.717148,360.940826 
M206.721573,272.094147 
	C206.819962,270.275024 206.929626,268.456390 207.014633,266.636658 
	C207.275772,261.045807 207.527466,255.454483 208.198151,250.619370 
	C208.772507,256.759918 209.346863,262.900482 209.921219,269.041046 
	C210.436905,269.088318 210.952576,269.135620 211.468262,269.182892 
	C220.607254,259.786377 221.010666,247.906494 220.084915,235.629120 
	C220.430069,235.809006 220.784531,235.883255 220.960205,236.101471 
	C225.430862,241.654861 227.485901,242.201645 232.405060,239.114044 
	C236.593597,236.485046 236.875320,234.410324 234.010498,228.214142 
	C233.316650,226.713470 232.829330,225.117676 232.239105,223.568649 
	C229.285370,215.816528 226.474350,213.716614 218.414459,214.063538 
	C213.163162,214.289566 208.420135,213.547913 204.858856,209.336060 
	C200.628036,204.332367 199.563919,198.574875 200.830200,192.199738 
	C201.098953,190.846695 200.972412,188.653900 200.120651,187.957016 
	C191.400879,180.822723 181.982620,174.706635 171.151642,171.331909 
	C162.643646,168.680984 160.022934,171.352905 161.908890,180.157532 
	C163.848587,189.213135 166.511459,198.154785 167.827332,207.294678 
	C170.710068,227.317856 172.208496,247.493622 170.923492,267.732849 
	C170.237152,278.542908 169.594284,289.471771 167.452042,300.047241 
	C163.881973,317.671539 159.383698,335.145050 149.166321,350.457001 
	C148.474548,351.493713 148.405167,352.945709 148.046310,354.204590 
	C161.162491,346.792633 170.083069,336.031403 178.089569,324.028900 
	C186.258621,311.782684 186.985397,297.266632 191.298157,283.861298 
	C191.828094,283.981689 192.358047,284.102051 192.887985,284.222443 
	C192.092072,290.666443 191.296143,297.110443 190.500229,303.554443 
	C199.791748,295.102905 204.929016,284.851868 206.721573,272.094147 
M337.076050,170.774139 
	C334.124146,171.082840 330.881866,170.716034 328.278351,171.835205 
	C322.093048,174.494080 316.028992,177.554535 310.255219,181.018219 
	C304.276398,184.604904 298.119690,187.816269 300.699219,197.410614 
	C302.835052,205.354614 293.159027,214.534531 285.625305,214.002548 
	C282.807983,213.803635 279.940796,213.782104 277.140350,214.085754 
	C275.631409,214.249359 273.492523,214.871780 272.882660,215.975204 
	C270.215515,220.800903 267.962158,225.859055 265.640472,230.870758 
	C263.840302,234.756668 265.530792,237.756470 268.638458,239.883057 
	C271.504425,241.844223 274.508087,241.682068 277.256042,239.159698 
	C277.931580,238.539597 279.140778,238.500870 280.290649,238.135834 
	C279.742188,255.048828 284.232117,267.109924 291.575165,268.404083 
	C292.085541,261.714233 292.595581,255.028839 293.105591,248.343430 
	C294.030792,255.937119 294.542908,263.491943 294.951324,271.052368 
	C295.570099,282.506226 300.063171,292.449249 306.789948,301.501740 
	C307.432343,302.366211 308.730957,302.743103 309.724884,303.346375 
	C309.849731,302.322296 310.155151,301.283020 310.070221,300.276642 
	C309.507446,293.608978 308.860962,286.948395 308.241730,280.285492 
	C313.308960,294.168396 313.796844,309.429138 321.889343,322.294891 
	C329.805084,334.879608 337.480103,347.667206 352.641235,354.667999 
	C351.859589,352.615479 351.560394,351.322357 350.920959,350.228058 
	C343.138062,336.908783 338.951874,322.332550 335.251892,307.477539 
	C331.223297,291.303345 329.122803,274.898987 329.190521,258.349274 
	C329.241150,245.966003 330.461639,233.516769 332.136810,221.229935 
	C333.959564,207.860855 336.838898,194.631744 339.412994,181.371796 
	C340.134521,177.654953 340.718414,174.155182 337.076050,170.774139 
M258.976196,354.995697 
	C259.044708,359.558533 259.113220,364.121399 259.181732,368.684235 
	C259.896545,368.690643 260.611359,368.697021 261.326172,368.703430 
	C261.696228,366.406616 262.066254,364.109772 262.450226,361.815399 
	C270.922577,361.518616 270.922577,361.518616 272.702087,369.008881 
	C275.655945,366.813110 276.112396,355.065430 273.185425,351.141510 
	C270.637177,353.837708 274.067902,360.057465 266.758270,360.230957 
	C259.233185,360.409668 264.016541,353.047272 259.761688,351.252716 
	C259.454193,352.399475 259.221466,353.267273 258.976196,354.995697 
M198.851425,365.133118 
	C201.766617,365.917694 204.681808,366.702271 208.213104,367.652649 
	C205.529724,362.090240 202.882675,356.603119 200.235626,351.115997 
	C199.684021,351.071991 199.132431,351.027985 198.580826,350.983978 
	C196.050079,356.637665 193.519333,362.291321 190.988586,367.945007 
	C191.350143,368.086670 191.711716,368.228363 192.073288,368.370026 
	C194.072388,367.328369 196.071472,366.286713 198.851425,365.133118 
M188.104309,351.526550 
	C185.139343,351.342163 182.173492,351.027100 179.209961,351.047699 
	C178.235641,351.054443 176.442795,351.899170 176.423294,352.413696 
	C176.218048,357.832977 176.296326,363.263000 176.296326,368.690063 
	C176.832977,368.722290 177.369614,368.754547 177.906265,368.786774 
	C178.719391,366.656921 178.961273,363.772217 180.503174,362.605408 
	C182.106735,361.391907 184.966370,361.838257 187.276749,361.558807 
	C187.247635,361.111481 187.218536,360.664154 187.189438,360.216797 
	C185.641418,360.136353 183.940582,360.427338 182.588348,359.871002 
	C181.235138,359.314270 180.230286,357.910736 179.072708,356.878387 
	C180.122803,355.926208 181.028580,354.661560 182.256531,354.094360 
	C184.144043,353.222443 186.252853,352.829590 188.104309,351.526550 
M287.961487,366.723297 
	C287.978394,364.571045 288.195496,362.397491 287.969299,360.271118 
	C287.538422,356.220703 288.329071,353.093536 292.898102,351.754303 
	C288.386475,351.754303 283.874847,351.754303 278.074585,351.754303 
	C284.994476,355.997528 284.994690,355.997528 284.997589,362.689667 
	C284.998505,364.786011 284.997742,366.882355 284.997742,370.059814 
	C286.545258,368.684052 287.198486,368.103302 287.961487,366.723297 
M239.764236,110.020920 
	C243.558731,114.474800 248.612457,110.561226 253.031219,111.914818 
	C255.667542,112.722404 259.014771,111.209290 262.042419,110.739403 
	C261.967407,110.247147 261.892395,109.754898 261.817383,109.262650 
	C254.556229,107.898857 247.294601,107.009911 239.764236,110.020920 
M233.728851,351.623322 
	C233.404800,357.399048 233.080765,363.174744 232.714890,369.696106 
	C236.599411,366.862488 237.114349,355.443878 233.728851,351.623322 
M323.933624,367.038971 
	C323.466888,364.935791 323.346863,362.664429 322.432007,360.778656 
	C321.585297,359.033386 319.805145,357.763916 318.588776,356.168457 
	C317.393372,354.600525 316.390015,352.886139 315.302368,351.236023 
	C317.079346,356.940277 319.093597,362.204102 321.287872,367.391846 
	C321.457764,367.793457 322.891449,367.660583 323.933624,367.038971 
M272.756744,118.346413 
	C273.371460,117.130402 274.728973,115.035881 274.487854,114.832024 
	C271.537262,112.337166 268.352295,110.119522 265.227997,107.830093 
	C264.812317,108.366943 264.396667,108.903793 263.980988,109.440643 
	C266.717621,112.291374 269.454224,115.142105 272.756744,118.346413 
M264.748077,334.003845 
	C253.496185,334.003845 242.244278,334.003845 230.992386,334.003845 
	C230.994995,334.246979 230.997604,334.490082 231.000214,334.733215 
	C242.988129,334.733215 254.976059,334.733215 266.963989,334.733215 
	C266.968719,334.609283 266.973450,334.485352 266.978180,334.361420 
	C266.504120,334.247040 266.030090,334.132660 264.748077,334.003845 
M242.471603,105.497330 
	C242.471603,105.497330 242.513580,105.481033 242.471603,105.497330 
z"/>
<path fill="#000000" opacity="1.000000" stroke="none" 
	d="
M337.396729,170.959595 
	C340.718414,174.155182 340.134521,177.654953 339.412994,181.371796 
	C336.838898,194.631744 333.959564,207.860855 332.136810,221.229935 
	C330.461639,233.516769 329.241150,245.966003 329.190521,258.349274 
	C329.122803,274.898987 331.223297,291.303345 335.251892,307.477539 
	C338.951874,322.332550 343.138062,336.908783 350.920959,350.228058 
	C351.560394,351.322357 351.859589,352.615479 352.641235,354.667999 
	C337.480103,347.667206 329.805084,334.879608 321.889343,322.294891 
	C313.796844,309.429138 313.308960,294.168396 308.241730,280.285492 
	C308.860962,286.948395 309.507446,293.608978 310.070221,300.276642 
	C310.155151,301.283020 309.849731,302.322296 309.724884,303.346375 
	C308.730957,302.743103 307.432343,302.366211 306.789948,301.501740 
	C300.063171,292.449249 295.570099,282.506226 294.951324,271.052368 
	C294.542908,263.491943 294.030792,255.937119 293.105591,248.343430 
	C292.595581,255.028839 292.085541,261.714233 291.575165,268.404083 
	C284.232117,267.109924 279.742188,255.048828 280.290649,238.135834 
	C279.140778,238.500870 277.931580,238.539597 277.256042,239.159698 
	C274.508087,241.682068 271.504425,241.844223 268.638458,239.883057 
	C265.530792,237.756470 263.840302,234.756668 265.640472,230.870758 
	C267.962158,225.859055 270.215515,220.800903 272.882660,215.975204 
	C273.492523,214.871780 275.631409,214.249359 277.140350,214.085754 
	C279.940796,213.782104 282.807983,213.803635 285.625305,214.002548 
	C293.159027,214.534531 302.835052,205.354614 300.699219,197.410614 
	C298.119690,187.816269 304.276398,184.604904 310.255219,181.018219 
	C316.028992,177.554535 322.093048,174.494080 328.278351,171.835205 
	C330.881866,170.716034 334.124146,171.082840 337.396729,170.959595 
z"/>
<path fill="#000000" opacity="1.000000" stroke="none" 
	d="
M206.211395,272.710449 
	C204.929016,284.851868 199.791748,295.102905 190.500229,303.554443 
	C191.296143,297.110443 192.092072,290.666443 192.887985,284.222443 
	C192.358047,284.102051 191.828094,283.981689 191.298157,283.861298 
	C186.985397,297.266632 186.258621,311.782684 178.089569,324.028900 
	C170.083069,336.031403 161.162491,346.792633 148.046310,354.204590 
	C148.405167,352.945709 148.474548,351.493713 149.166321,350.457001 
	C159.383698,335.145050 163.881973,317.671539 167.452042,300.047241 
	C169.594284,289.471771 170.237152,278.542908 170.923492,267.732849 
	C172.208496,247.493622 170.710068,227.317856 167.827332,207.294678 
	C166.511459,198.154785 163.848587,189.213135 161.908890,180.157532 
	C160.022934,171.352905 162.643646,168.680984 171.151642,171.331909 
	C181.982620,174.706635 191.400879,180.822723 200.120651,187.957016 
	C200.972412,188.653900 201.098953,190.846695 200.830200,192.199738 
	C199.563919,198.574875 200.628036,204.332367 204.858856,209.336060 
	C208.420135,213.547913 213.163162,214.289566 218.414459,214.063538 
	C226.474350,213.716614 229.285370,215.816528 232.239105,223.568649 
	C232.829330,225.117676 233.316650,226.713470 234.010498,228.214142 
	C236.875320,234.410324 236.593597,236.485046 232.405060,239.114044 
	C227.485901,242.201645 225.430862,241.654861 220.960205,236.101471 
	C220.784531,235.883255 220.430069,235.809006 220.084915,235.629120 
	C221.010666,247.906494 220.607254,259.786377 211.468262,269.182892 
	C210.952576,269.135620 210.436905,269.088318 209.921219,269.041046 
	C209.346863,262.900482 208.772507,256.759918 208.044525,249.803925 
	C207.890915,247.011734 207.890915,245.034988 207.890915,243.058243 
	C207.331070,243.068741 206.771240,243.079224 206.211395,243.089706 
	C206.211395,252.963287 206.211395,262.836853 206.211395,272.710449 
z"/>
<path fill="#F0B71E" opacity="1.000000" stroke="none" 
	d="
M240.352417,161.178101 
	C243.703613,155.215958 248.458115,152.725616 253.708328,154.182465 
	C258.749359,155.581268 261.796265,160.092758 261.864624,166.514847 
	C261.935364,173.161667 261.880310,179.809814 261.880310,186.856705 
	C268.399811,186.856705 275.344208,186.815857 282.287872,186.867630 
	C289.979584,186.924988 294.931946,191.365402 294.809692,197.990112 
	C294.689484,204.504211 289.948853,208.703568 282.422424,208.796066 
	C275.800232,208.877457 269.176270,208.813080 261.880157,208.813080 
	C261.880157,216.310715 261.866608,223.250031 261.884796,230.189285 
	C261.897369,234.984573 259.801483,238.587402 255.551697,240.695175 
	C251.054749,242.925522 249.518631,242.027588 248.958176,237.129883 
	C247.027054,220.253647 247.869217,203.938004 259.968628,188.674103 
	C256.859375,189.244705 254.977188,189.300003 253.324310,189.943893 
	C246.366898,192.654297 241.133133,197.526932 237.757050,204.061371 
	C235.792725,207.863327 233.403412,209.388641 229.161255,208.899490 
	C225.707748,208.501297 222.170761,208.887741 218.675018,208.783615 
	C208.844742,208.490814 204.320663,200.647171 209.270111,191.740631 
	C209.828323,191.823334 209.942307,191.955811 209.967422,192.460876 
	C208.182709,199.495316 210.249344,203.827042 216.750641,205.049683 
	C221.804810,206.000168 227.102783,205.781570 232.292267,205.779343 
	C233.350143,205.778900 234.819839,204.664429 235.401016,203.659454 
	C241.048874,193.893036 249.686676,187.924088 259.979095,184.195267 
	C259.979095,177.764832 260.109802,171.606522 259.940491,165.456482 
	C259.786957,159.879959 254.666336,154.887360 250.080170,156.499329 
	C246.791199,157.655365 244.187988,160.762482 241.029510,162.948944 
	C240.615707,162.857376 240.451248,162.816055 240.295242,162.506958 
	C240.319931,161.885513 240.336166,161.531799 240.352417,161.178101 
z"/>
<path fill="#000000" opacity="1.000000" stroke="none" 
	d="
M248.982559,133.871918 
	C254.101791,133.619690 259.221039,133.367477 265.023804,132.829315 
	C267.134644,132.346619 268.561920,132.149826 269.989227,131.953033 
	C271.186859,131.500031 272.384460,131.047012 274.139160,130.328033 
	C275.527069,129.798889 276.357910,129.535721 277.188721,129.272552 
	C279.351471,126.920319 283.510040,125.947815 282.388428,120.863091 
	C282.125305,119.840996 282.061462,119.418633 281.997650,118.996262 
	C286.622162,119.162582 288.019684,123.190918 288.048798,126.167847 
	C288.075806,128.925888 286.049286,132.816650 283.714294,134.301270 
	C270.375763,142.782043 255.668015,144.372849 240.178543,142.159515 
	C233.151688,141.155411 226.467468,139.733276 220.520660,135.796448 
	C212.354141,130.390137 211.884628,128.185715 217.158844,119.276306 
	C217.776367,118.654266 217.934738,118.396286 218.004593,118.083961 
	C218.004593,118.083961 218.048752,118.096138 218.348267,118.172760 
	C219.127792,118.824310 219.607788,119.399239 220.087799,119.974167 
	C220.114304,120.148689 220.140793,120.323204 220.144913,121.141220 
	C221.082626,123.835594 222.042725,125.886475 223.002808,127.937363 
	C225.082184,128.938751 227.161545,129.940155 229.866257,131.268646 
	C233.653854,132.342499 236.816116,133.089279 239.978378,133.836044 
	C241.767929,133.844208 243.557465,133.852371 246.052383,133.897385 
	C247.499359,133.913452 248.240952,133.892685 248.982559,133.871918 
z"/>
<path fill="#000000" opacity="1.000000" stroke="none" 
	d="
M253.094055,294.714081 
	C251.389572,297.729492 250.012283,300.997986 247.915100,303.709717 
	C242.964066,310.111603 244.018616,317.471741 244.066696,324.671326 
	C244.089157,328.033325 243.057068,329.705597 238.537491,328.754608 
	C241.831589,315.638092 235.685242,304.891968 228.807465,294.405579 
	C232.738968,292.929504 232.738968,292.929504 240.949951,306.407043 
	C243.376251,302.865051 246.033447,299.822479 247.687943,296.307892 
	C249.028610,293.459900 250.810898,292.754700 254.013916,293.220642 
	C254.047241,293.918823 253.570663,294.316437 253.094055,294.714081 
z"/>
<path fill="#000000" opacity="1.000000" stroke="none" 
	d="
M258.982483,354.565369 
	C259.221466,353.267273 259.454193,352.399475 259.761688,351.252716 
	C264.016541,353.047272 259.233185,360.409668 266.758270,360.230957 
	C274.067902,360.057465 270.637177,353.837708 273.185425,351.141510 
	C276.112396,355.065430 275.655945,366.813110 272.702087,369.008881 
	C270.922577,361.518616 270.922577,361.518616 262.443237,361.814148 
	C262.066254,364.109772 261.696228,366.406616 261.326172,368.703430 
	C260.611359,368.697021 259.896545,368.690643 259.181732,368.684235 
	C259.113220,364.121399 259.044708,359.558533 258.982483,354.565369 
z"/>
<path fill="#000000" opacity="1.000000" stroke="none" 
	d="
M225.022644,360.974762 
	C224.482117,362.497711 223.941589,364.020660 223.271088,365.909851 
	C219.069733,363.081482 215.963074,363.237610 215.046860,369.288605 
	C214.663239,369.114807 214.279602,368.941010 213.895981,368.767181 
	C213.590576,367.237854 213.100052,365.718140 213.020096,364.177094 
	C212.874420,361.370331 212.764465,358.529602 213.049286,355.744965 
	C213.211594,354.158173 214.397003,351.269958 214.759460,351.325653 
	C218.697968,351.930756 222.707642,352.660797 226.352829,354.183136 
	C227.293228,354.575867 227.109299,357.852753 227.236404,359.818054 
	C227.258392,360.158142 226.249741,360.564880 225.370697,360.568420 
	C225.010468,359.374786 224.994370,358.553528 224.983368,357.732239 
	C224.934738,354.105652 222.865189,353.671204 219.710983,353.807251 
	C215.627838,353.983337 215.865189,356.527588 216.048615,359.216827 
	C216.307922,363.018860 218.949509,361.873047 221.148529,361.567413 
	C222.442352,361.387573 223.731415,361.173462 225.022644,360.974762 
z"/>
<path fill="#000000" opacity="1.000000" stroke="none" 
	d="
M198.460999,365.189087 
	C196.071472,366.286713 194.072388,367.328369 192.073288,368.370026 
	C191.711716,368.228363 191.350143,368.086670 190.988586,367.945007 
	C193.519333,362.291321 196.050079,356.637665 198.580826,350.983978 
	C199.132431,351.027985 199.684021,351.071991 200.235626,351.115997 
	C202.882675,356.603119 205.529724,362.090240 208.213104,367.652649 
	C204.681808,366.702271 201.766617,365.917694 198.460999,365.189087 
M198.041443,356.874908 
	C197.304886,358.578613 196.568314,360.282288 195.565338,362.602173 
	C198.688736,362.602173 200.881424,362.602173 203.740891,362.602173 
	C202.334305,359.548737 201.154053,356.986633 199.825211,354.101959 
	C199.099030,355.152283 198.724533,355.693970 198.041443,356.874908 
z"/>
<path fill="#000000" opacity="1.000000" stroke="none" 
	d="
M188.186035,351.880005 
	C186.252853,352.829590 184.144043,353.222443 182.256531,354.094360 
	C181.028580,354.661560 180.122803,355.926208 179.072723,356.878418 
	C180.230286,357.910736 181.235138,359.314270 182.588348,359.871002 
	C183.940582,360.427338 185.641418,360.136353 187.189438,360.216797 
	C187.218536,360.664154 187.247635,361.111481 187.276749,361.558807 
	C184.966370,361.838257 182.106735,361.391907 180.503174,362.605408 
	C178.961273,363.772217 178.719391,366.656921 177.906265,368.786774 
	C177.369614,368.754547 176.832977,368.722290 176.296326,368.690063 
	C176.296326,363.263000 176.218048,357.832977 176.423294,352.413696 
	C176.442795,351.899170 178.235641,351.054443 179.209961,351.047699 
	C182.173492,351.027100 185.139343,351.342163 188.186035,351.880005 
z"/>
<path fill="#000000" opacity="1.000000" stroke="none" 
	d="
M259.984955,305.993225 
	C259.913177,331.387299 260.804077,328.283691 256.029724,329.713318 
	C256.029724,321.987762 256.029724,314.521057 256.445709,306.556549 
	C257.902771,306.036896 258.943878,306.015076 259.984955,305.993225 
z"/>
<path fill="#000000" opacity="1.000000" stroke="none" 
	d="
M298.022522,368.998901 
	C298.009155,364.515198 298.160248,360.022980 297.929504,355.550476 
	C297.750458,352.080017 299.081451,350.625824 302.515320,350.909973 
	C305.021149,351.117310 307.537415,351.197968 310.049042,351.335114 
	C310.067596,351.793152 310.086151,352.251190 310.104706,352.709229 
	C308.093842,353.144928 305.972900,353.320770 304.111542,354.109375 
	C302.906525,354.619873 302.081085,356.026276 301.085571,357.031250 
	C302.281647,358.010712 303.343597,359.335480 304.713440,359.867584 
	C305.956146,360.350281 307.534210,359.969666 309.040314,360.614319 
	C306.543182,360.908539 304.046051,361.202728 300.899414,361.950928 
	C300.152618,364.155151 300.055267,365.905396 299.934998,368.068115 
	C303.873077,368.068115 307.457855,368.068115 311.042664,368.068115 
	C311.042664,368.068115 311.015503,367.975891 310.968201,368.236511 
	C310.920868,368.497101 310.919678,368.993195 310.919678,368.993195 
	C310.919678,368.993195 311.009888,369.015961 310.556274,368.990997 
	C306.075928,368.976990 302.049225,368.987946 298.022522,368.998901 
z"/>
<path fill="#000000" opacity="1.000000" stroke="none" 
	d="
M287.906616,367.122925 
	C287.198486,368.103302 286.545258,368.684052 284.997742,370.059814 
	C284.997742,366.882355 284.998505,364.786011 284.997589,362.689667 
	C284.994690,355.997528 284.994476,355.997528 278.074585,351.754303 
	C283.874847,351.754303 288.386475,351.754303 292.898102,351.754303 
	C288.329071,353.093536 287.538422,356.220703 287.969299,360.271118 
	C288.195496,362.397491 287.978394,364.571045 287.906616,367.122925 
z"/>
<path fill="#1A224E" opacity="1.000000" stroke="none" 
	d="
M239.896912,109.736992 
	C247.294601,107.009911 254.556229,107.898857 261.817383,109.262650 
	C261.892395,109.754898 261.967407,110.247147 262.042419,110.739403 
	C259.014771,111.209290 255.667542,112.722404 253.031219,111.914818 
	C248.612457,110.561226 243.558731,114.474800 239.896912,109.736992 
z"/>
<path fill="#000000" opacity="1.000000" stroke="none" 
	d="
M251.984955,366.986084 
	C250.704239,365.337097 249.428009,363.684540 248.131348,362.048157 
	C248.055923,361.953003 247.796082,362.027649 247.653946,361.958130 
	C244.575363,360.452148 239.925430,360.177032 241.292404,354.894684 
	C242.174103,351.487579 247.797104,350.506897 252.781876,352.997345 
	C250.336609,352.997345 248.270172,352.591278 246.490219,353.130646 
	C245.155884,353.534943 244.190231,355.155945 243.060440,356.235229 
	C244.031082,357.073395 244.881485,358.173187 246.000900,358.687683 
	C247.632767,359.437775 249.528824,359.601685 251.185776,360.310974 
	C254.321732,361.653442 254.908646,364.509186 252.358154,366.978271 
	C252.011444,367.011780 251.984955,366.986084 251.984955,366.986084 
z"/>
<path fill="#000000" opacity="1.000000" stroke="none" 
	d="
M234.117065,351.503479 
	C237.114349,355.443878 236.599411,366.862488 232.714890,369.696106 
	C233.080765,363.174744 233.404800,357.399048 234.117065,351.503479 
z"/>
<path fill="#000000" opacity="1.000000" stroke="none" 
	d="
M323.835693,367.407562 
	C322.891449,367.660583 321.457764,367.793457 321.287872,367.391846 
	C319.093597,362.204102 317.079346,356.940277 315.302368,351.236023 
	C316.390015,352.886139 317.393372,354.600525 318.588776,356.168457 
	C319.805145,357.763916 321.585297,359.033386 322.432007,360.778656 
	C323.346863,362.664429 323.466888,364.935791 323.835693,367.407562 
z"/>
<path fill="#1A224E" opacity="1.000000" stroke="none" 
	d="
M272.473816,118.169624 
	C269.454224,115.142105 266.717621,112.291374 263.980988,109.440643 
	C264.396667,108.903793 264.812317,108.366943 265.227997,107.830093 
	C268.352295,110.119522 271.537262,112.337166 274.487854,114.832024 
	C274.728973,115.035881 273.371460,117.130402 272.473816,118.169624 
z"/>
<path fill="#298E5D" opacity="1.000000" stroke="none" 
	d="
M260.146667,305.601501 
	C258.943878,306.015076 257.902771,306.036896 256.473450,306.097168 
	C256.330292,303.673615 256.575409,301.211639 257.332520,298.467712 
	C258.402435,298.030792 258.960358,297.875916 259.518311,297.721008 
	C259.781677,300.217255 260.045044,302.713501 260.146667,305.601501 
z"/>
<path fill="#BD7B58" opacity="1.000000" stroke="none" 
	d="
M259.820496,297.378906 
	C258.960358,297.875916 258.402435,298.030792 257.615204,298.235352 
	C256.207794,297.091766 255.029678,295.898468 253.472809,294.709656 
	C253.570663,294.316437 254.047241,293.918823 254.437378,293.207184 
	C256.257538,292.492584 258.164154,292.091980 260.070801,291.691376 
	C260.088104,293.473175 260.105408,295.254974 259.820496,297.378906 
z"/>
<path fill="#F0B71E" opacity="1.000000" stroke="none" 
	d="
M232.988663,186.733444 
	C233.445236,186.768967 233.901825,186.804489 235.069839,186.910553 
	C237.229050,186.663330 238.676804,186.345581 240.357147,186.058578 
	C240.589722,186.089325 241.053635,186.159790 241.036499,186.440643 
	C239.675064,187.628632 238.315552,189.335312 236.989014,189.310059 
	C229.695877,189.171234 222.410812,188.608673 215.057434,188.100098 
	C214.991913,188.008667 214.860001,187.826401 215.227356,187.617798 
	C221.392700,187.183945 227.190689,186.958694 232.988663,186.733444 
z"/>
<path fill="#858DB6" opacity="1.000000" stroke="none" 
	d="
M265.152069,334.011047 
	C266.030090,334.132660 266.504120,334.247040 266.978180,334.361420 
	C266.973450,334.485352 266.968719,334.609283 266.963989,334.733215 
	C254.976059,334.733215 242.988129,334.733215 231.000214,334.733215 
	C230.997604,334.490082 230.994995,334.246979 230.992386,334.003845 
	C242.244278,334.003845 253.496185,334.003845 265.152069,334.011047 
z"/>
<path fill="#B9BDCB" opacity="1.000000" stroke="none" 
	d="
M206.466492,272.402283 
	C206.211395,262.836853 206.211395,252.963287 206.211395,243.089706 
	C206.771240,243.079224 207.331070,243.068741 207.890915,243.058243 
	C207.890915,245.034988 207.890915,247.011734 207.836884,249.425919 
	C207.527466,255.454483 207.275772,261.045807 207.014633,266.636658 
	C206.929626,268.456390 206.819962,270.275024 206.466492,272.402283 
z"/>
<path fill="#1A224E" opacity="1.000000" stroke="none" 
	d="
M227.001953,107.997360 
	C229.272125,109.433556 231.542297,110.869759 233.912109,112.368980 
	C233.107437,112.917702 232.484711,113.401886 231.807205,113.790527 
	C230.763733,114.389069 229.682709,114.922119 228.617615,115.482948 
	C228.080505,114.430084 227.338257,113.427475 227.064499,112.310089 
	C226.795288,111.211281 227.001511,109.995995 226.999557,108.415909 
	C227.000000,108.000000 227.001953,107.997360 227.001953,107.997360 
z"/>
<path fill="#4F3C18" opacity="1.000000" stroke="none" 
	d="
M240.124573,186.027832 
	C238.676804,186.345581 237.229050,186.663330 235.411407,186.866394 
	C238.578796,185.529190 238.807343,182.579453 238.917435,179.493591 
	C239.129440,173.551666 239.424805,167.612732 240.018997,161.425323 
	C240.336166,161.531799 240.319931,161.885513 240.190765,162.991302 
	C240.093399,171.171539 240.108978,178.599686 240.124573,186.027832 
z"/>
<path fill="#1A224E" opacity="1.000000" stroke="none" 
	d="
M281.999146,118.997986 
	C282.061462,119.418633 282.125305,119.840996 282.202332,120.584007 
	C279.828186,121.007034 277.310364,121.144356 277.149658,117.825356 
	C277.102539,116.852699 277.895447,115.839363 278.303375,114.844673 
	C279.177216,115.409576 280.051086,115.974480 281.037598,117.124283 
	C281.434387,118.140488 281.718567,118.571800 282.002716,119.003113 
	C282.002716,119.003113 282.000610,118.999710 281.999146,118.997986 
z"/>
<path fill="#000000" opacity="1.000000" stroke="none" 
	d="
M252.024719,367.025757 
	C249.445679,371.219879 244.623917,371.276276 241.807632,367.124878 
	C244.959122,367.124878 248.089508,367.124878 251.602417,367.055481 
	C251.984955,366.986084 252.011444,367.011780 252.024719,367.025757 
z"/>
<path fill="#4F3C18" opacity="1.000000" stroke="none" 
	d="
M232.640381,186.517609 
	C227.190689,186.958694 221.392700,187.183945 214.906982,187.639282 
	C213.598175,188.001968 212.977142,188.134583 212.356094,188.267197 
	C213.898788,187.538391 215.419037,186.246918 216.988327,186.184280 
	C222.079895,185.981003 227.189468,186.228088 232.640381,186.517609 
z"/>
<path fill="#1A224E" opacity="1.000000" stroke="none" 
	d="
M220.383102,119.838852 
	C219.607788,119.399239 219.127792,118.824310 218.361755,118.154243 
	C220.025208,116.664307 221.974716,115.269508 223.985031,113.831207 
	C225.189926,117.232788 223.874176,119.014153 220.383102,119.838852 
z"/>
<path fill="#1A224E" opacity="1.000000" stroke="none" 
	d="
M239.894501,133.495758 
	C236.816116,133.089279 233.653854,132.342499 230.212372,131.344727 
	C233.753021,129.254272 237.013199,130.096359 239.894501,133.495758 
z"/>
<path fill="#1A224E" opacity="1.000000" stroke="none" 
	d="
M223.003601,127.521637 
	C222.042725,125.886475 221.082626,123.835594 220.196625,121.400894 
	C224.463577,121.573349 222.491989,124.897255 223.003601,127.521637 
z"/>
<path fill="#F0B71E" opacity="1.000000" stroke="none" 
	d="
M212.143204,188.496582 
	C212.977142,188.134583 213.598175,188.001968 214.539612,187.847870 
	C214.860001,187.826401 214.991913,188.008667 214.860016,188.339691 
	C214.133896,190.226517 213.539688,191.782303 212.848648,193.591614 
	C211.975464,193.121521 211.015884,192.604904 210.056305,192.088303 
	C209.942307,191.955811 209.828323,191.823334 209.548035,191.488007 
	C210.231247,190.432098 211.080780,189.579041 212.143204,188.496582 
z"/>
<path fill="#80869F" opacity="1.000000" stroke="none" 
	d="
M310.802826,367.722107 
	C307.457855,368.068115 303.873077,368.068115 299.934998,368.068115 
	C300.055267,365.905396 300.152618,364.155151 300.636475,362.236755 
	C301.023041,363.514038 301.023041,364.959473 301.023041,366.684113 
	C304.443787,366.932251 307.503387,367.154205 310.802826,367.722107 
z"/>
<path fill="#80869F" opacity="1.000000" stroke="none" 
	d="
M298.262573,369.346069 
	C302.049225,368.987946 306.075928,368.976990 310.568298,368.946045 
	C306.856842,369.181793 302.679718,369.437531 298.262573,369.346069 
z"/>
<path fill="#1A224E" opacity="1.000000" stroke="none" 
	d="
M269.813293,131.676636 
	C268.561920,132.149826 267.134644,132.346619 265.361145,132.631195 
	C265.160645,127.389458 267.465240,129.627029 269.813293,131.676636 
z"/>
<path fill="#1A224E" opacity="1.000000" stroke="none" 
	d="
M248.896423,133.588348 
	C248.240952,133.892685 247.499359,133.913452 246.388412,133.897629 
	C246.949478,133.675613 247.879883,133.490189 248.896423,133.588348 
z"/>
<path fill="#1A224E" opacity="1.000000" stroke="none" 
	d="
M275.913940,128.047409 
	C275.425110,127.384239 274.936279,126.721062 274.447479,126.057884 
	C274.686249,125.914116 274.925049,125.770348 275.163818,125.626579 
	C275.443054,126.213425 275.722260,126.800270 275.990906,127.698517 
	C275.980347,128.009918 275.913940,128.047409 275.913940,128.047409 
z"/>
<path fill="#1A224E" opacity="1.000000" stroke="none" 
	d="
M277.030457,129.027573 
	C276.357910,129.535721 275.527069,129.798889 274.356567,130.088135 
	C274.534210,129.571503 275.051605,129.028809 275.741455,128.266754 
	C275.913940,128.047409 275.980347,128.009918 276.012939,127.989639 
	C276.321106,128.240448 276.596649,128.511520 277.030457,129.027573 
z"/>
<path fill="#1A224E" opacity="1.000000" stroke="none" 
	d="
M217.803711,118.090096 
	C217.934738,118.396286 217.776367,118.654266 217.338058,118.986130 
	C217.298721,118.775002 217.450775,118.435616 217.803711,118.090096 
z"/>
<path fill="#000000" opacity="1.000000" stroke="none" 
	d="
M282.024933,118.726334 
	C281.718567,118.571800 281.434387,118.140488 281.123383,117.445412 
	C281.413391,117.604279 281.730286,118.026917 282.024933,118.726334 
z"/>
<path fill="#1A224E" opacity="1.000000" stroke="none" 
	d="
M275.000000,111.000305 
	C274.707642,110.846237 274.415314,110.692169 274.122955,110.538101 
	C274.340210,110.598030 274.557434,110.657959 274.887329,110.858948 
	C275.000000,111.000000 275.000000,111.000305 275.000000,111.000305 
z"/>
<path fill="#1A224E" opacity="1.000000" stroke="none" 
	d="
M275.000000,110.999916 
	C275.000000,110.999832 275.276367,111.169266 275.276367,111.169266 
	C275.276367,111.169266 275.079163,111.154381 275.039581,111.077347 
	C275.000000,111.000305 275.000000,111.000000 275.000000,110.999916 
z"/>
<path fill="#1A224E" opacity="1.000000" stroke="none" 
	d="
M226.998688,108.000961 
	C226.997375,108.001923 226.721207,107.828720 226.721207,107.828720 
	C226.721207,107.828720 226.921616,107.842896 226.961792,107.920128 
	C227.001953,107.997360 227.000000,108.000000 226.998688,108.000961 
z"/>
<path fill="#80869F" opacity="1.000000" stroke="none" 
	d="
M311.227570,369.013336 
	C310.919678,368.993195 310.920868,368.497101 310.921814,368.249146 
	C311.126984,368.345276 311.331207,368.689362 311.227570,369.013336 
z"/>
<path fill="#1A224E" opacity="1.000000" stroke="none" 
	d="
M242.492584,105.489182 
	C242.513580,105.481033 242.471603,105.497330 242.492584,105.489182 
z"/>
<path fill="#FEBD10" opacity="1.000000" stroke="none" 
	d="
M209.967422,192.460876 
	C211.015884,192.604904 211.975464,193.121521 212.848648,193.591614 
	C213.539688,191.782303 214.133896,190.226517 214.925537,188.431137 
	C222.410812,188.608673 229.695877,189.171234 236.989014,189.310059 
	C238.315552,189.335312 239.675064,187.628632 241.046356,185.954773 
	C241.141830,177.791748 241.210342,170.395462 241.278854,162.999176 
	C244.187988,160.762482 246.791199,157.655365 250.080170,156.499329 
	C254.666336,154.887360 259.786957,159.879959 259.940491,165.456482 
	C260.109802,171.606522 259.979095,177.764832 259.979095,184.195267 
	C249.686676,187.924088 241.048874,193.893036 235.401016,203.659454 
	C234.819839,204.664429 233.350143,205.778900 232.292267,205.779343 
	C227.102783,205.781570 221.804810,206.000168 216.750641,205.049683 
	C210.249344,203.827042 208.182709,199.495316 209.967422,192.460876 
z"/>
<path fill="#E5BA54" opacity="1.000000" stroke="none" 
	d="
M241.029510,162.948944 
	C241.210342,170.395462 241.141830,177.791748 241.063477,185.673920 
	C241.053635,186.159790 240.589722,186.089325 240.357147,186.058578 
	C240.108978,178.599686 240.093399,171.171539 240.182312,163.259064 
	C240.451248,162.816055 240.615707,162.857376 241.029510,162.948944 
z"/>
<path fill="#192146" opacity="1.000000" stroke="none" 
	d="
M225.009888,360.984558 
	C223.731415,361.173462 222.442352,361.387573 221.148529,361.567413 
	C218.949509,361.873047 216.307922,363.018860 216.048615,359.216827 
	C215.865189,356.527588 215.627838,353.983337 219.710983,353.807251 
	C222.865189,353.671204 224.934738,354.105652 224.983368,357.732239 
	C224.994370,358.553528 225.010468,359.374786 225.002121,360.608643 
	C224.980011,361.021210 224.997147,360.994354 225.009888,360.984558 
z"/>
<path fill="#26284E" opacity="1.000000" stroke="none" 
	d="
M198.195740,356.555298 
	C198.724533,355.693970 199.099030,355.152283 199.825211,354.101959 
	C201.154053,356.986633 202.334305,359.548737 203.740891,362.602173 
	C200.881424,362.602173 198.688736,362.602173 195.565338,362.602173 
	C196.568314,360.282288 197.304886,358.578613 198.195740,356.555298 
z"/>
</svg>